<svg fill="none" height="20" viewBox="0 0 20 20" width="20" xmlns="http://www.w3.org/2000/svg"><g fill="#212121"><path d="m10 6.5c.2761 0 .5.22386.5.5v5.063c.8626.222 1.5 1.0051 1.5 1.937 0 1.1046-.8954 2-2 2-1.10457 0-2-.8954-2-2 0-.9319.63739-1.715 1.5-1.937v-5.063c0-.27614.22386-.5.5-.5z"/><path d="m10 2c-1.65685 0-3 1.34315-3 3l.00008 6.3541c-.622.7048-1.00008 1.6316-1.00008 2.6459 0 2.2091 1.79086 4 4 4 2.2091 0 4-1.7909 4-4 0-1.0143-.3781-1.9411-1.0001-2.6459l.0001-6.3541c0-1.65685-1.3431-3-3-3zm0 1c1.1046 0 2 .89543 2 2l-.0001 6.7546.1429.1458c.5308.5416.8572 1.282.8572 2.0996 0 1.6568-1.3431 3-3 3-1.65685 0-3-1.3432-3-3 0-.8176.32642-1.558.85719-2.0996l.14289-.1458-.00008-6.7546c0-1.10457.89543-2 2-2z"/></g></svg>